<?xml version="1.0"?>
<svg xmlns="http://www.w3.org/2000/svg" xmlns:xlink="http://www.w3.org/1999/xlink" version="1.1" viewBox="0 0 210 210" width="60px" height="60px"><g fill="none" fill-rule="nonzero" stroke="none" stroke-width="1" stroke-linecap="butt" stroke-linejoin="miter" stroke-miterlimit="10" stroke-dasharray="" stroke-dashoffset="0" font-family="none" font-weight="none" font-size="none" text-anchor="none" style="mix-blend-mode: normal"><path d="M0,210v-210h210v210z" fill="none"/><g fill="#9cbc68"><path d="M188.188,116.053c0.483,-3.626 0.812,-7.301 0.812,-11.053c0,-46.389 -37.611,-84 -84,-84c-3.752,0 -7.427,0.329 -11.053,0.812c-7.994,-4.921 -17.374,-7.812 -27.447,-7.812c-28.994,0 -52.5,23.506 -52.5,52.5c0,10.073 2.891,19.453 7.812,27.447c-0.483,3.626 -0.812,7.301 -0.812,11.053c0,46.389 37.611,84 84,84c3.752,0 7.427,-0.329 11.053,-0.812c7.994,4.921 17.374,7.812 27.447,7.812c28.994,0 52.5,-23.506 52.5,-52.5c0,-10.073 -2.891,-19.453 -7.812,-27.447zM106.043,154c-27.272,0 -42.931,-14.294 -42.931,-28.322c0,-7.154 7.49,-9.443 10.486,-9.443c6.923,0 9.226,5.649 10.486,8.239c7.035,14.462 13.797,12.558 20.461,13.188c5.887,0.553 19.705,-2.044 19.705,-12.138c0,-0.966 1.519,-7.532 -10.409,-10.787c-7.623,-2.086 -21.063,-4.641 -32.123,-8.897c-10.402,-4.004 -16.506,-12.25 -16.506,-22.876c0,-5.313 2.723,-26.964 39.557,-26.964c24.584,0 37.688,12.593 37.688,23.674c0,2.548 -0.973,4.795 -2.926,6.818c-1.953,2.023 -7.455,4.984 -13.482,1.127c-1.519,-0.973 -2.772,-2.996 -4.27,-5.621c-1.806,-3.297 -4.76,-9.667 -18.361,-9.667c-13.195,0 -16.856,6.293 -16.856,8.918c0,8.82 16.835,10.675 21.357,11.844c16.506,4.256 38.962,8.169 38.962,30.422c0,25.55 -26.586,30.485 -40.838,30.485z"/></g></g></svg>
